<svg width="51" height="53" viewBox="0 0 51 53" fill="none" xmlns="http://www.w3.org/2000/svg">
<path d="M27.4875 23.2731L25.4717 20.7075L25.5823 20.619C27.6485 18.966 30.5947 19.0031 32.6187 20.7075L30.4196 23.2731C29.4744 22.9186 28.4327 22.9186 27.4875 23.2731Z" fill="#FAEA1B"/>
<path d="M23.4558 19.4248L21.4399 16.8592C25.5895 12.7096 32.3174 12.7096 36.467 16.8592L34.2679 19.4248L34.1707 19.3341C31.1437 16.5089 26.4345 16.5488 23.4558 19.4248Z" fill="#95C22C"/>
<path d="M19.6081 15.2103L17.5923 12.6447C23.6773 5.87266 34.3606 5.92132 40.4993 12.6447L38.3003 15.2103C33.0792 10.194 24.8292 10.194 19.6081 15.2103Z" fill="#00A29B"/>
<path d="M8.06328 29.8711L15.5768 22.1743H12.0949C10.8732 22.2354 8.35649 23.2372 8.06328 26.7557C7.63568 25.4118 6.23072 22.6141 4.03164 22.1743H0L8.06328 29.8711Z" fill="#333060"/>
<path fill-rule="evenodd" clip-rule="evenodd" d="M50.2123 29.8711H8.06328C8.06328 49.5162 22.2351 53.4501 29.321 52.9614C45.4476 52.9614 49.9679 37.5679 50.2123 29.8711ZM20.5247 41.0497C28.588 40.3167 29.8097 35.7353 31.5201 33.5362H45.6308C45.0444 41.1597 40.1332 45.509 37.7508 46.7307C25.5826 53.6211 17.4094 45.8144 14.8438 41.0497H20.5247Z" fill="#333060"/>
</svg>
